<?xml version="1.0" encoding="utf-8"?>
<!-- Generator: Adobe Illustrator 22.0.1, SVG Export Plug-In . SVG Version: 6.00 Build 0)  -->
<svg version="1.1" xmlns="http://www.w3.org/2000/svg" xmlns:xlink="http://www.w3.org/1999/xlink" x="0px" y="0px"
	 viewBox="0 0 144 166.3" style="enable-background:new 0 0 144 166.3;" xml:space="preserve">
<style type="text/css">
	.st0{fill:#FFFFFF;}
	.st1{fill:#E74C3C;}
</style>
<g id="Layer_2">
</g>
<g id="Layer_1">
	<circle class="st0" cx="72" cy="83.1" r="70.9"/>
	<title>Asset 1</title>
	<g id="Layer_2_1_">
		<g id="Layer_1-2">
			<path class="st1" d="M72,35.8L31,59.5v47.3l41,23.7l41-23.7V59.5L72,35.8z M97.3,75.9l-21.7,32.5c-1,1.6-3.2,2-4.7,1
				c-0.4-0.3-0.7-0.6-1-1L48.2,75.9c-1-1.6-0.6-3.7,1-4.7c0,0,0,0,0,0l0,0c5-3.3,11.7-2,15,3c0,0,0,0,0,0l5.7,8.6c1,1.6,3.2,2,4.7,1
				c0.4-0.3,0.7-0.6,1-1l5.7-8.6c3.3-5,10-6.3,15-3c0,0,0,0,0,0l0,0C98,72.2,98.4,74.3,97.3,75.9z"/>
		</g>
	</g>
</g>
</svg>
